HIERARCHY
ROOT Hips
{
	OFFSET 46.724998 9.682036 84.163399
	CHANNELS 6 Xposition Yposition Zposition Xrotation Yrotation Zrotation
	JOINT spine
	{
		OFFSET 0.000000 -0.359108 6.244797
		CHANNELS 3 Xrotation Yrotation Zrotation
		JOINT spine1
		{
			OFFSET 0.000000 -0.000002 9.069412
			CHANNELS 3 Xrotation Yrotation Zrotation
			JOINT spine2
			{
				OFFSET 0.000000 -0.000001 8.690140
				CHANNELS 3 Xrotation Yrotation Zrotation
				JOINT Neck
				{
					OFFSET 0.000000 -1.063724 22.311195
					CHANNELS 3 Xrotation Yrotation Zrotation
					JOINT Head
					{
						OFFSET 0.000000 -0.000001 6.740814
						CHANNELS 3 Xrotation Yrotation Zrotation
						End Site
						{
							OFFSET 0.000000 5.380967 16.316498
						}
					}
				}
				JOINT RightShoulder
				{
					OFFSET -3.659161 0.509512 9.384682
					CHANNELS 3 Xrotation Yrotation Zrotation
					JOINT RightArm
					{
						OFFSET 0.000000 -0.000002 12.308899
						CHANNELS 3 Xrotation Yrotation Zrotation
						JOINT RightArmRoll
						{
							OFFSET 0.000000 -0.000001 6.213745
							CHANNELS 3 Xrotation Yrotation Zrotation
							JOINT RightForeArm
							{
								OFFSET 0.000000 -0.000003 18.098495
								CHANNELS 3 Xrotation Yrotation Zrotation
								JOINT RightForeArmRoll
								{
									OFFSET 0.000000 -0.000002 6.972794
									CHANNELS 3 Xrotation Yrotation Zrotation
									JOINT RightHand
									{
										OFFSET 0.000000 -0.000002 13.992905
										CHANNELS 3 Xrotation Yrotation Zrotation
										End Site
										{
											OFFSET 0.000000 0.000000 0.100006
										}
									}
								}
							}
						}
					}
				}
				JOINT LeftShoulder
				{
					OFFSET 3.659161 0.509512 9.384682
					CHANNELS 3 Xrotation Yrotation Zrotation
					JOINT LeftArm
					{
						OFFSET 0.000000 -0.000002 12.308899
						CHANNELS 3 Xrotation Yrotation Zrotation
						JOINT LeftArmRoll
						{
							OFFSET 0.000000 -0.000001 6.213745
							CHANNELS 3 Xrotation Yrotation Zrotation
							JOINT LeftForeArm
							{
								OFFSET 0.000000 -0.000003 18.098495
								CHANNELS 3 Xrotation Yrotation Zrotation
								JOINT LeftForeArmRoll
								{
									OFFSET 0.000000 -0.000002 6.972794
									CHANNELS 3 Xrotation Yrotation Zrotation
									JOINT LeftHand
									{
										OFFSET 0.000000 -0.000002 13.992905
										CHANNELS 3 Xrotation Yrotation Zrotation
										End Site
										{
											OFFSET 0.000000 0.000000 0.100006
										}
									}
								}
							}
						}
					}
				}
			}
		}
	}
	JOINT RightUpLeg
	{
		OFFSET -5.535149 0.851454 -1.014999
		CHANNELS 3 Xrotation Yrotation Zrotation
		JOINT RightUpLegRoll
		{
			OFFSET 0.000000 -0.000003 16.407501
			CHANNELS 3 Xrotation Yrotation Zrotation
			JOINT RightLeg
			{
				OFFSET 0.000000 0.000003 -20.318100
				CHANNELS 3 Xrotation Yrotation Zrotation
				JOINT RightLegRoll
				{
					OFFSET 0.000000 -0.000003 20.384598
					CHANNELS 3 Xrotation Yrotation Zrotation
					JOINT RightFoot
					{
						OFFSET 0.000000 -0.000003 16.966805
						CHANNELS 3 Xrotation Yrotation Zrotation
						JOINT RightToeBase
						{
							OFFSET 0.000000 -0.000002 14.183395
							CHANNELS 3 Xrotation Yrotation Zrotation
							End Site
							{
								OFFSET 0.006012 0.791743 6.868896
							}
						}
					}
				}
			}
		}
	}
	JOINT LeftUpLeg
	{
		OFFSET 5.535149 0.851454 -1.014999
		CHANNELS 3 Xrotation Yrotation Zrotation
		JOINT LeftUpLegRoll
		{
			OFFSET 0.000000 -0.000003 16.407600
			CHANNELS 3 Xrotation Yrotation Zrotation
			JOINT LeftLeg
			{
				OFFSET 0.000000 -0.000003 20.318100
				CHANNELS 3 Xrotation Yrotation Zrotation
				JOINT LeftLegRoll
				{
					OFFSET 0.000000 -0.000004 20.573105
					CHANNELS 3 Xrotation Yrotation Zrotation
					JOINT LeftFoot
					{
						OFFSET 0.000000 -0.000003 16.778305
						CHANNELS 3 Xrotation Yrotation Zrotation
						JOINT LeftToeBase
						{
							OFFSET 0.000000 -0.000002 14.183395
							CHANNELS 3 Xrotation Yrotation Zrotation
							End Site
							{
								OFFSET -0.026943 0.791745 6.868896
							}
						}
					}
				}
			}
		}
	}
}
MOTION
Frames: 6
Frame Time: 0.041667
43.478901 10.266786 83.841293 1.354715 -0.287080 -0.062799 -1.481856 0.151866 0.061958 1.038926 0.318920 0.126413 2.684002 0.319973 0.122674 10.166178 -0.490040 0.005894 0.524967 -0.563197 0.121001 -4.205841 -68.230236 -5.775007 -24.252279 -110.603528 -15.702736 0.000000 0.000000 0.000001 19.543874 -10.680516 1.090817 -0.000001 0.000013 -3.000000 -5.000271 -7.998753 0.000182 -13.285919 62.628661 15.795373 -16.060597 113.225296 1.774765 0.000001 -0.000004 -0.000001 21.849528 4.870227 -0.360649 0.000000 -0.000005 3.010131 -5.000340 7.999431 -0.000101 -8.863461 -179.498068 -0.595903 -179.999991 0.000005 -1.001987 164.507224 -1.434925 -1.086684 -0.000004 0.000004 0.396489 72.487384 6.918223 1.793467 25.458012 -7.351331 0.000188 -4.239222 177.479911 -1.282251 -0.000005 -0.000005 -0.961936 -13.979669 0.926822 1.060933 0.000006 0.000001 -0.363399 75.368255 -6.401839 -3.131640 25.456960 7.352397 -0.000007 
43.478401 10.262885 83.832298 1.379776 -0.291716 -0.057619 -1.486286 0.152620 0.060195 1.030066 0.319289 0.122907 2.675142 0.320332 0.119158 10.162285 -0.495154 0.009324 0.513350 -0.555757 0.124356 -4.203557 -68.226186 -5.772063 -24.259988 -110.617550 -15.727689 0.000000 -0.000000 0.000000 19.563731 -10.687653 1.093975 0.000001 0.000013 -3.000001 -5.000270 -7.998754 0.000182 -13.278877 62.635539 15.787400 -16.092564 113.238929 1.833652 0.000002 -0.000004 -0.000001 21.889926 4.882893 -0.363346 -0.000003 -0.000005 3.010129 -5.000340 7.999432 -0.000100 -8.884658 -179.492167 -0.595344 -179.999991 0.000005 -1.001987 164.494205 -1.435795 -1.087276 -0.000004 0.000004 0.395990 72.504159 6.917272 1.793083 25.458010 -7.351332 0.000188 -4.273117 177.497970 -1.262262 -0.000004 -0.000004 -0.963264 -14.010928 0.915426 1.060051 0.000005 0.000001 -0.365961 75.394531 -6.408466 -3.109999 25.456960 7.352397 -0.000007 
43.477699 10.248384 83.879807 1.405710 -0.296509 -0.052330 -1.490945 0.153404 0.058358 1.020756 0.319686 0.119255 2.665832 0.320718 0.115494 10.159094 -0.500063 0.012805 0.501147 -0.548349 0.127739 -4.200589 -68.221951 -5.768331 -24.266663 -110.632508 -15.751615 -0.000000 0.000000 0.000000 19.583797 -10.694871 1.097201 -0.000001 0.000013 -3.000001 -5.000269 -7.998754 0.000183 -13.271853 62.642807 15.779480 -16.124526 113.250499 1.892544 0.000002 -0.000004 -0.000002 21.931150 4.895854 -0.366097 0.000001 -0.000004 3.010129 -5.000340 7.999430 -0.000102 -8.906986 -179.486266 -0.594526 -179.999991 0.000005 -1.001987 164.481091 -1.436665 -1.087872 -0.000004 0.000004 0.395484 72.520906 6.916255 1.792590 25.458010 -7.351331 0.000188 -4.307680 177.516029 -1.241883 -0.000005 -0.000004 -0.964550 -14.041286 0.904019 1.059179 0.000005 0.000001 -0.368389 75.420178 -6.414865 -3.088862 25.456960 7.352399 -0.000009 
43.504700 10.271084 83.862808 1.432249 -0.301409 -0.046965 -1.495765 0.154210 0.056470 1.011116 0.320102 0.115501 2.656192 0.321122 0.111729 10.156401 -0.504829 0.016322 0.488531 -0.540964 0.131143 -4.197130 -68.217532 -5.764027 -24.274474 -110.646565 -15.776811 0.000000 0.000000 0.000001 19.603872 -10.702180 1.100456 0.000000 0.000013 -3.000000 -5.000270 -7.998754 0.000182 -13.264930 62.650498 15.771687 -16.155554 113.261988 1.950469 0.000002 -0.000003 0.000001 21.972976 4.908998 -0.368890 -0.000002 -0.000004 3.010130 -5.000341 7.999430 -0.000102 -8.930087 -179.479381 -0.593678 -179.999991 0.000005 -1.001987 164.467964 -1.438508 -1.089735 -0.000005 0.000004 0.394972 72.537476 6.915297 1.791918 25.458009 -7.351332 0.000188 -4.342723 177.534088 -1.221246 -0.000004 -0.000005 -0.965807 -14.071144 0.892602 1.058313 0.000006 0.000001 -0.370724 75.445347 -6.421124 -3.068229 25.456960 7.352396 -0.000007 
43.500599 10.258585 83.836189 1.459131 -0.306367 -0.041553 -1.500675 0.155029 0.054552 1.001306 0.320529 0.111687 2.646382 0.321538 0.107903 10.154109 -0.509514 0.019860 0.475684 -0.533595 0.134560 -4.193429 -68.213120 -5.759448 -24.281276 -110.661523 -15.800951 0.000000 0.000000 -0.000000 19.624044 -10.709381 1.103691 -0.000001 0.000012 -3.000000 -5.000269 -7.998753 0.000182 -13.258066 62.658468 15.763960 -16.186064 113.273421 2.007717 0.000001 -0.000004 0.000001 22.015119 4.922259 -0.371714 -0.000001 -0.000005 3.010131 -5.000341 7.999430 -0.000105 -8.953649 -179.472496 -0.592731 -179.999991 0.000005 -1.001987 164.454863 -1.440338 -1.090599 -0.000005 0.000004 0.394457 72.553951 6.914367 1.791257 25.458014 -7.351333 0.000188 -4.378025 177.553144 -1.200546 -0.000005 -0.000004 -0.967048 -14.100604 0.881183 1.057445 0.000005 0.000001 -0.373006 75.470162 -6.427313 -3.047707 25.456959 7.352396 -0.000007 
43.470798 10.207784 83.844902 1.486112 -0.311336 -0.036127 -1.505616 0.155851 0.052627 0.991438 0.320961 0.107860 2.636522 0.321958 0.104063 10.151916 -0.514179 0.023403 0.462773 -0.526229 0.137983 -4.189632 -68.208605 -5.754758 -24.288059 -110.676501 -15.825080 0.000000 -0.000000 0.000000 19.644220 -10.716674 1.106965 0.000001 0.000012 -3.000000 -5.000271 -7.998753 0.000182 -13.251133 62.666344 15.756169 -16.217068 113.283892 2.065529 0.000002 -0.000004 -0.000002 22.057461 4.935540 -0.374575 0.000002 -0.000005 3.010129 -5.000341 7.999430 -0.000103 -8.977309 -179.466608 -0.591606 -179.999991 0.000005 -1.001987 164.441640 -1.442167 -1.091466 -0.000004 0.000004 0.393942 72.570412 6.913429 1.790593 25.458009 -7.351331 0.000188 -4.413397 177.571217 -1.179740 -0.000004 -0.000004 -0.968284 -14.129963 0.869761 1.056567 0.000005 0.000001 -0.375274 75.494989 -6.433455 -3.027274 25.456959 7.352396 -0.000008 
